<?xml version="1.0" encoding="UTF-8" standalone="no"?>
<svg
   xmlns:dc="http://purl.org/dc/elements/1.1/"
   xmlns:cc="http://creativecommons.org/ns#"
   xmlns:rdf="http://www.w3.org/1999/02/22-rdf-syntax-ns#"
   xmlns:svg="http://www.w3.org/2000/svg"
   xmlns="http://www.w3.org/2000/svg"
   xmlns:sodipodi="http://sodipodi.sourceforge.net/DTD/sodipodi-0.dtd"
   xmlns:inkscape="http://www.inkscape.org/namespaces/inkscape"
   width="16.299999"
   height="16"
   class="bi bi-folder-plus"
   viewBox="0 0 16.299999 16"
   version="1.1"
   id="svg6"
   sodipodi:docname="card-image.svg"
   style="fill:currentColor"
   inkscape:version="0.92.4 (5da689c313, 2019-01-14)">
  <metadata
     id="metadata12">
    <rdf:RDF>
      <cc:Work
         rdf:about="">
        <dc:format>image/svg+xml</dc:format>
        <dc:type
           rdf:resource="http://purl.org/dc/dcmitype/StillImage" />
        <dc:title />
      </cc:Work>
    </rdf:RDF>
  </metadata>
  <defs
     id="defs10" />
  <sodipodi:namedview
     pagecolor="#ffffff"
     bordercolor="#666666"
     borderopacity="1"
     objecttolerance="10"
     gridtolerance="10"
     guidetolerance="10"
     inkscape:pageopacity="0"
     inkscape:pageshadow="2"
     inkscape:window-width="1920"
     inkscape:window-height="1137"
     id="namedview8"
     showgrid="false"
     inkscape:zoom="32"
     inkscape:cx="13.414561"
     inkscape:cy="7.7201765"
     inkscape:window-x="-4"
     inkscape:window-y="-4"
     inkscape:window-maximized="1"
     inkscape:current-layer="svg6"
     inkscape:snap-midpoints="false"
     inkscape:snap-bbox="true"
     inkscape:snap-others="true"
     inkscape:object-nodes="false" />
  <path
     d="m 13.8,9 a 0.5,0.5 0 0 1 0.5,0.5 V 11 h 1.5 a 0.5,0.5 0 1 1 0,1 h -1.5 v 1.5 a 0.5,0.5 0 1 1 -1,0 V 12 h -1.5 a 0.5,0.5 0 0 1 0,-1 h 1.5 V 9.5 A 0.5,0.5 0 0 1 13.8,9 Z"
     id="path4"
     inkscape:connector-curvature="0"
     style="fill:#ffffff;fill-opacity:1;stroke:none;stroke-opacity:1" />
  <path
     style="fill:#ffffff;fill-opacity:1;stroke:none;stroke-opacity:1"
     d="m 6.012,5.505424 a 1.5000002,1.5000002 0 1 1 -3,0 1.5000002,1.5000002 0 0 1 3,0 z"
     id="path2-1"
     inkscape:connector-curvature="0" />
  <path
     style="fill:#ffffff;fill-opacity:1;stroke:none;stroke-width:1.04149199;stroke-opacity:1"
     d="m 1.5097656,0.9893934 c -0.82842707,0 -1.49999997,0.7284588 -1.49999997,1.6270583 V 6.821804 8.6903788 12.378801 c 0,0.898599 0.67157289,1.627058 1.49999997,1.627058 H 9.3632812 V 8.5187749 L 6.9472656,11.137322 4.2871094,9.215783 C 4.0891003,9.0727918 3.8267169,9.1014544 3.6582031,9.2835771 L 1.0117188,11.836448 v 0.584725 c -0.0012,-0.01443 -0.00181,-0.02789 -0.00195,-0.04237 V 8.6903788 6.8684124 2.6164517 c 0,-0.2995332 0.2238576,-0.5423528 0.5,-0.5423528 H 14.509766 c 0.276142,0 0.5,0.2428196 0.5,0.5423528 v 4.3028063 0.00847 h 1 V 6.923488 2.6164445 c 0,-0.8985995 -0.671573,-1.6270583 -1.5,-1.6270583 z"
     id="path4-7"
     inkscape:connector-curvature="0" />
</svg>
